<mxfile host="app.diagrams.net" agent="Mozilla/5.0 (Windows NT 10.0; Win64; x64) AppleWebKit/537.36 (KHTML, like Gecko) Chrome/131.0.0.0 Safari/537.36" version="25.0.1">
  <diagram name="Trang-1" id="4pq7uXLQaYeb_D_mPRUE">
    <mxGraphModel dx="2415" dy="2085" grid="1" gridSize="10" guides="1" tooltips="1" connect="1" arrows="1" fold="1" page="1" pageScale="1" pageWidth="827" pageHeight="1169" math="0" shadow="0">
      <root>
        <mxCell id="0" />
        <mxCell id="1" parent="0" />
        <mxCell id="P31gPx8tbJ69Tu1oSB_v-1" value="&lt;p style=&quot;margin:0px;margin-top:4px;text-align:center;&quot;&gt;&lt;b&gt;AddDocumentController&lt;/b&gt;&lt;/p&gt;&lt;hr size=&quot;1&quot;/&gt;&lt;p style=&quot;margin:0 0 0 4px;line-height:1.6;&quot;&gt;- addTag(String, ObservableList&amp;lt;String&amp;gt;, HBox): void&lt;br/&gt;- resetAllTextField(): void&lt;br/&gt;+ submit(): void&lt;br/&gt;- getAllTagsFromDB(): void&lt;br/&gt;+ initialize(URL, ResourceBundle): void&lt;br/&gt;- insertDocumentIntoDB(): void&lt;br/&gt;- insertDocument_TagIntoDB(): void&lt;br/&gt;+ addDocument(): void&lt;/p&gt;" style="verticalAlign=top;align=left;overflow=fill;fontSize=14;fontFamily=Helvetica;html=1;rounded=0;shadow=0;comic=0;labelBackgroundColor=none;strokeWidth=1;" vertex="1" parent="1">
          <mxGeometry x="1015" y="882" width="368" height="231" as="geometry" />
        </mxCell>
        <mxCell id="P31gPx8tbJ69Tu1oSB_v-2" value="&lt;p style=&quot;margin:0px;margin-top:4px;text-align:center;&quot;&gt;&lt;b&gt;BaseSceneController&lt;/b&gt;&lt;/p&gt;&lt;hr size=&quot;1&quot;/&gt;&lt;p style=&quot;margin:0 0 0 4px;line-height:1.6;&quot;&gt;- handleAddDocumentButton(): void&lt;br/&gt;- changeAvatar(String): Image&lt;br/&gt;- handleDocumentButton(): void&lt;br/&gt;- UserProfile(): void&lt;br/&gt;+ setCircularAvatar(): void&lt;br/&gt;- handleDocRequestsButton(): void&lt;br/&gt;- handleDashBoardButton(): void&lt;br/&gt;- handleReportButtonAction(): void&lt;br/&gt;+ Logout(ActionEvent): void&lt;br/&gt;- handleShowReportButtonAction(): void&lt;br/&gt;+ initialize(URL, ResourceBundle): void&lt;br/&gt;+ handleExploreButton(): void&lt;/p&gt;" style="verticalAlign=top;align=left;overflow=fill;fontSize=14;fontFamily=Helvetica;html=1;rounded=0;shadow=0;comic=0;labelBackgroundColor=none;strokeWidth=1;" vertex="1" parent="1">
          <mxGeometry x="2414" y="332" width="287" height="327" as="geometry" />
        </mxCell>
        <mxCell id="P31gPx8tbJ69Tu1oSB_v-3" value="&lt;p style=&quot;margin:0px;margin-top:4px;text-align:center;&quot;&gt;&lt;b&gt;BookDetailController&lt;/b&gt;&lt;/p&gt;&lt;hr size=&quot;1&quot;/&gt;&lt;p style=&quot;margin:0 0 0 4px;line-height:1.6;&quot;&gt;- displayBookDescription(String): void&lt;br/&gt;- getFileNameFromDatabase(String): String&lt;br/&gt;- displayBookDetails(String, String, String, int, String): void&lt;br/&gt;- fetchComments(int): List&amp;lt;Comment&amp;gt;&lt;br/&gt;- addCommentToDatabase(String): void&lt;br/&gt;+ initialize(URL, ResourceBundle): void&lt;br/&gt;- handleBorrowButton(): void&lt;br/&gt;- openDocument(): void&lt;br/&gt;- updateBorrowingsTable(): boolean&lt;br/&gt;+ loadComments(int): void&lt;br/&gt;+ load1(String): void&lt;br/&gt;- handleReturnButton(): void&lt;br/&gt;- displayError(String): void&lt;br/&gt;~ handleAddCommentButton(): void&lt;br/&gt;- loadBookDetails(): void&lt;br/&gt;- viewBorrowOrReturnButton(): void&lt;/p&gt;" style="verticalAlign=top;align=left;overflow=fill;fontSize=14;fontFamily=Helvetica;html=1;rounded=0;shadow=0;comic=0;labelBackgroundColor=none;strokeWidth=1;" vertex="1" parent="1">
          <mxGeometry x="80" y="800" width="397" height="423" as="geometry" />
        </mxCell>
        <mxCell id="P31gPx8tbJ69Tu1oSB_v-4" value="&lt;p style=&quot;margin:0px;margin-top:4px;text-align:center;&quot;&gt;&lt;b&gt;Controller&lt;/b&gt;&lt;/p&gt;&lt;hr size=&quot;1&quot;/&gt;&lt;p style=&quot;margin:0 0 0 4px;line-height:1.6;&quot;&gt;+ loadNewScene(String, ActionEvent): void&lt;br/&gt;+ loadCurrentStage(ActionEvent): Stage?&lt;br/&gt;+ showAlert(String, String): void&lt;br/&gt;+ loadFXMLtoAnchorPane(String, AnchorPane): void&lt;br/&gt;+ initialize(URL, ResourceBundle): void&lt;br/&gt;+ setPrimaryStage(Stage): void&lt;br/&gt;~ setStyleForSelectedButton(Button): void&lt;br/&gt;+ getPrimaryStage(): Stage&lt;/p&gt;" style="verticalAlign=top;align=left;overflow=fill;fontSize=14;fontFamily=Helvetica;html=1;rounded=0;shadow=0;comic=0;labelBackgroundColor=none;strokeWidth=1;" vertex="1" parent="1">
          <mxGeometry x="618" y="-20" width="355" height="231" as="geometry" />
        </mxCell>
        <mxCell id="P31gPx8tbJ69Tu1oSB_v-5" value="&lt;p style=&quot;margin:0px;margin-top:4px;text-align:center;&quot;&gt;&lt;b&gt;DashboardController&lt;/b&gt;&lt;/p&gt;&lt;hr size=&quot;1&quot;/&gt;&lt;p style=&quot;margin:0 0 0 4px;line-height:1.6;&quot;&gt;- loadRecommendation(): void&lt;br/&gt;- loadBorrowingBookCounts(String): void&lt;br/&gt;- getTotalBorrowedAndUnreturnedBooks(String): void&lt;br/&gt;- loadTotalBooksAndUsers(): void&lt;br/&gt;+ initialize(URL, ResourceBundle): void&lt;br/&gt;- loadCategoryBookCounts(): void&lt;br/&gt;+ document(): void&lt;/p&gt;" style="verticalAlign=top;align=left;overflow=fill;fontSize=14;fontFamily=Helvetica;html=1;rounded=0;shadow=0;comic=0;labelBackgroundColor=none;strokeWidth=1;" vertex="1" parent="1">
          <mxGeometry x="1982" y="475" width="369" height="207" as="geometry" />
        </mxCell>
        <mxCell id="P31gPx8tbJ69Tu1oSB_v-6" value="&lt;p style=&quot;margin:0px;margin-top:4px;text-align:center;&quot;&gt;&lt;b&gt;DocumentController&lt;/b&gt;&lt;/p&gt;&lt;hr size=&quot;1&quot;/&gt;&lt;p style=&quot;margin:0 0 0 4px;line-height:1.6;&quot;&gt;- updateBookInDatabase(Document): void&lt;br/&gt;- deleteBookFromDatabase(int): void&lt;br/&gt;- setupPagination(): void&lt;br/&gt;+ initialize(URL, ResourceBundle): void&lt;br/&gt;- handlePrevPage(): void&lt;br/&gt;- handleEditBook(): void&lt;br/&gt;- handleDeleteBook(): void&lt;br/&gt;+ handleDetailButton(): void&lt;br/&gt;- updateDocTable(): void&lt;br/&gt;- handleNextPage(): void&lt;br/&gt;+ handlePageChange(): void&lt;br/&gt;- handleDocumentStatus(): void&lt;br/&gt;- loadDocumentData(): void&lt;br/&gt;- updateTable(int): void&lt;br/&gt;- handleFindBook(): void&lt;br/&gt;- updatePage(): void&lt;/p&gt;" style="verticalAlign=top;align=left;overflow=fill;fontSize=14;fontFamily=Helvetica;html=1;rounded=0;shadow=0;comic=0;labelBackgroundColor=none;strokeWidth=1;" vertex="1" parent="1">
          <mxGeometry x="1070" y="30" width="296" height="423" as="geometry" />
        </mxCell>
        <mxCell id="P31gPx8tbJ69Tu1oSB_v-7" value="&lt;p style=&quot;margin:0px;margin-top:4px;text-align:center;&quot;&gt;&lt;b&gt;DocumentDetailsController&lt;/b&gt;&lt;/p&gt;&lt;hr size=&quot;1&quot;/&gt;&lt;p style=&quot;margin:0 0 0 4px;line-height:1.6;&quot;&gt;- rejectRequest(): void&lt;br/&gt;- acceptRequest(): void&lt;br/&gt;+ initialize(URL, ResourceBundle): void&lt;br/&gt;- openFile(): void&lt;/p&gt;" style="verticalAlign=top;align=left;overflow=fill;fontSize=14;fontFamily=Helvetica;html=1;rounded=0;shadow=0;comic=0;labelBackgroundColor=none;strokeWidth=1;" vertex="1" parent="1">
          <mxGeometry x="1954" y="795" width="271" height="146" as="geometry" />
        </mxCell>
        <mxCell id="P31gPx8tbJ69Tu1oSB_v-8" value="&lt;p style=&quot;margin:0px;margin-top:4px;text-align:center;&quot;&gt;&lt;b&gt;DocumentRequestController&lt;/b&gt;&lt;/p&gt;&lt;hr size=&quot;1&quot;/&gt;&lt;p style=&quot;margin:0 0 0 4px;line-height:1.6;&quot;&gt;+ initialize(URL, ResourceBundle): void&lt;br/&gt;- loadRequestData(): void&lt;br/&gt;- previewDocument(): void&lt;br/&gt;- openSelectedRequest(): void&lt;/p&gt;" style="verticalAlign=top;align=left;overflow=fill;fontSize=14;fontFamily=Helvetica;html=1;rounded=0;shadow=0;comic=0;labelBackgroundColor=none;strokeWidth=1;" vertex="1" parent="1">
          <mxGeometry x="-70" y="300" width="272" height="146" as="geometry" />
        </mxCell>
        <mxCell id="P31gPx8tbJ69Tu1oSB_v-9" value="&lt;p style=&quot;margin:0px;margin-top:4px;text-align:center;&quot;&gt;&lt;b&gt;ExploreController&lt;/b&gt;&lt;/p&gt;&lt;hr size=&quot;1&quot;/&gt;&lt;p style=&quot;margin:0 0 0 4px;line-height:1.6;&quot;&gt;+ getJsonPrimitive(JsonElement, String): String&lt;br/&gt;+ handleFindBook(): void&lt;br/&gt;+ initialize(URL, ResourceBundle): void&lt;br/&gt;+ openBookDetail(): void&lt;/p&gt;" style="verticalAlign=top;align=left;overflow=fill;fontSize=14;fontFamily=Helvetica;html=1;rounded=0;shadow=0;comic=0;labelBackgroundColor=none;strokeWidth=1;" vertex="1" parent="1">
          <mxGeometry x="1590" y="575" width="324" height="146" as="geometry" />
        </mxCell>
        <mxCell id="P31gPx8tbJ69Tu1oSB_v-10" value="&lt;p style=&quot;margin:0px;margin-top:4px;text-align:center;&quot;&gt;&lt;b&gt;ExploreDetailController&lt;/b&gt;&lt;/p&gt;&lt;hr size=&quot;1&quot;/&gt;&lt;p style=&quot;margin:0 0 0 4px;line-height:1.6;&quot;&gt;- displayBookDetails(String, String, String, int, String): void&lt;br/&gt;~ handleAddCommentButton(): void&lt;br/&gt;- addCommentToDatabase(String): void&lt;br/&gt;- displayError(String): void&lt;br/&gt;+ initialize(URL, ResourceBundle): void&lt;br/&gt;- fetchComments(int): List&amp;lt;Comment&amp;gt;&lt;br/&gt;+ loadComments(int): void&lt;br/&gt;- loadBookDetails(): void&lt;/p&gt;" style="verticalAlign=top;align=left;overflow=fill;fontSize=14;fontFamily=Helvetica;html=1;rounded=0;shadow=0;comic=0;labelBackgroundColor=none;strokeWidth=1;" vertex="1" parent="1">
          <mxGeometry x="700" y="620" width="397" height="231" as="geometry" />
        </mxCell>
        <mxCell id="P31gPx8tbJ69Tu1oSB_v-11" value="&lt;p style=&quot;margin:0px;margin-top:4px;text-align:center;&quot;&gt;&lt;b&gt;LoginController&lt;/b&gt;&lt;/p&gt;&lt;hr size=&quot;1&quot;/&gt;&lt;p style=&quot;margin:0 0 0 4px;line-height:1.6;&quot;&gt;+ sendEmail(String, String): void&lt;br/&gt;+ login(String, String): boolean&lt;br/&gt;+ initialize(URL, ResourceBundle): void&lt;br/&gt;+ generateRandomPassword(int): String&lt;br/&gt;+ handleForgotPassword(ActionEvent): void&lt;br/&gt;- togglePasswordVisibility(): void&lt;br/&gt;+ handleLogin(ActionEvent): void&lt;br/&gt;+ setupFieldFocusListener(TextInputControl, String): void&lt;br/&gt;+ handleCreateAccount(ActionEvent): void&lt;/p&gt;" style="verticalAlign=top;align=left;overflow=fill;fontSize=14;fontFamily=Helvetica;html=1;rounded=0;shadow=0;comic=0;labelBackgroundColor=none;strokeWidth=1;" vertex="1" parent="1">
          <mxGeometry x="973" y="1192" width="386" height="255" as="geometry" />
        </mxCell>
        <mxCell id="P31gPx8tbJ69Tu1oSB_v-12" value="&lt;p style=&quot;margin:0px;margin-top:4px;text-align:center;&quot;&gt;&lt;b&gt;ProfileController&lt;/b&gt;&lt;/p&gt;&lt;hr size=&quot;1&quot;/&gt;&lt;p style=&quot;margin:0 0 0 4px;line-height:1.6;&quot;&gt;- getCurrentUserId(): int&lt;br/&gt;- saveProfileChanges(): void&lt;br/&gt;- handleChangeProfile(): void&lt;br/&gt;+ initialize(URL, ResourceBundle): void&lt;br/&gt;- createChangePasswordDialogGrid(): GridPane&lt;br/&gt;- showChangePasswordDialog(): Optional&amp;lt;ButtonType&amp;gt;&lt;br/&gt;+ handleChangePassword(): void&lt;br/&gt;- changePasswordInDatabase(String, String): void&lt;br/&gt;+ handleSetAvatar(): void&lt;br/&gt;+ configureDateOfBirthField(): void&lt;/p&gt;" style="verticalAlign=top;align=left;overflow=fill;fontSize=14;fontFamily=Helvetica;html=1;rounded=0;shadow=0;comic=0;labelBackgroundColor=none;strokeWidth=1;" vertex="1" parent="1">
          <mxGeometry x="2623" y="743" width="386" height="279" as="geometry" />
        </mxCell>
        <mxCell id="P31gPx8tbJ69Tu1oSB_v-13" value="&lt;p style=&quot;margin:0px;margin-top:4px;text-align:center;&quot;&gt;&lt;b&gt;ReportController&lt;/b&gt;&lt;/p&gt;&lt;hr size=&quot;1&quot;/&gt;&lt;p style=&quot;margin:0 0 0 4px;line-height:1.6;&quot;&gt;- initializeComboBox(): void&lt;br/&gt;- sendReport(): void&lt;br/&gt;- removeSelectedFile(KeyEvent): void&lt;br/&gt;- openFile(String): void&lt;br/&gt;+ setFileChooser(): void&lt;br/&gt;+ initialize(URL, ResourceBundle): void&lt;br/&gt;+ insertData(): void&lt;/p&gt;" style="verticalAlign=top;align=left;overflow=fill;fontSize=14;fontFamily=Helvetica;html=1;rounded=0;shadow=0;comic=0;labelBackgroundColor=none;strokeWidth=1;" vertex="1" parent="1">
          <mxGeometry x="2286" y="742" width="271" height="207" as="geometry" />
        </mxCell>
        <mxCell id="P31gPx8tbJ69Tu1oSB_v-14" value="&lt;p style=&quot;margin:0px;margin-top:4px;text-align:center;&quot;&gt;&lt;b&gt;ReportDetailsController&lt;/b&gt;&lt;/p&gt;&lt;hr size=&quot;1&quot;/&gt;&lt;p style=&quot;margin:0 0 0 4px;line-height:1.6;&quot;&gt;+ handledOrPending(ActionEvent): void&lt;br/&gt;- updateButtonText(): void&lt;br/&gt;+ initialize(URL, ResourceBundle): void&lt;br/&gt;- updateReportStatusInDatabase(): boolean&lt;/p&gt;" style="verticalAlign=top;align=left;overflow=fill;fontSize=14;fontFamily=Helvetica;html=1;rounded=0;shadow=0;comic=0;labelBackgroundColor=none;strokeWidth=1;" vertex="1" parent="1">
          <mxGeometry x="1590" y="790" width="304" height="146" as="geometry" />
        </mxCell>
        <mxCell id="P31gPx8tbJ69Tu1oSB_v-15" value="&lt;p style=&quot;margin:0px;margin-top:4px;text-align:center;&quot;&gt;&lt;b&gt;ReportRequestController&lt;/b&gt;&lt;/p&gt;&lt;hr size=&quot;1&quot;/&gt;&lt;p style=&quot;margin:0 0 0 4px;line-height:1.6;&quot;&gt;+ initialize(URL, ResourceBundle): void&lt;br/&gt;+ openReport(ActionEvent): void&lt;br/&gt;- loadReportData(String): void&lt;/p&gt;" style="verticalAlign=top;align=left;overflow=fill;fontSize=14;fontFamily=Helvetica;html=1;rounded=0;shadow=0;comic=0;labelBackgroundColor=none;strokeWidth=1;" vertex="1" parent="1">
          <mxGeometry x="668" y="972" width="271" height="120" as="geometry" />
        </mxCell>
        <mxCell id="P31gPx8tbJ69Tu1oSB_v-16" value="&lt;p style=&quot;margin:0px;margin-top:4px;text-align:center;&quot;&gt;&lt;b&gt;SignUpController&lt;/b&gt;&lt;/p&gt;&lt;hr size=&quot;1&quot;/&gt;&lt;p style=&quot;margin:0 0 0 4px;line-height:1.6;&quot;&gt;+ initialize(URL, ResourceBundle): void&lt;br/&gt;+ checkIfUserExists(String, String, String): boolean&lt;br/&gt;+ handleSignUp(ActionEvent): void&lt;br/&gt;+ handleShowConfirmPassword(ActionEvent): void&lt;br/&gt;- checkInputs(): void&lt;br/&gt;+ registerUser(String, String, String, String, String): boolean&lt;br/&gt;~ handleBack(ActionEvent): void&lt;br/&gt;- handleShowPassword(ActionEvent): void&lt;br/&gt;- addInputValidation(): void&lt;/p&gt;" style="verticalAlign=top;align=left;overflow=fill;fontSize=14;fontFamily=Helvetica;html=1;rounded=0;shadow=0;comic=0;labelBackgroundColor=none;strokeWidth=1;" vertex="1" parent="1">
          <mxGeometry x="1444" y="1102" width="397" height="255" as="geometry" />
        </mxCell>
        <mxCell id="P31gPx8tbJ69Tu1oSB_v-17" value="" style="html=1;rounded=1;edgeStyle=orthogonalEdgeStyle;dashed=0;startArrow=none;endArrow=block;endSize=12;strokeColor=#000082;exitX=1.000;exitY=0.500;exitDx=0;exitDy=0;entryX=0.500;entryY=1.000;entryDx=0;entryDy=0;" edge="1" parent="1" source="P31gPx8tbJ69Tu1oSB_v-1" target="P31gPx8tbJ69Tu1oSB_v-4">
          <mxGeometry width="50" height="50" relative="1" as="geometry">
            <Array as="points">
              <mxPoint x="1414" y="997" />
              <mxPoint x="1414" y="555" />
              <mxPoint x="401" y="555" />
            </Array>
          </mxGeometry>
        </mxCell>
        <mxCell id="P31gPx8tbJ69Tu1oSB_v-18" value="" style="html=1;rounded=1;edgeStyle=orthogonalEdgeStyle;dashed=0;startArrow=none;endArrow=block;endSize=12;strokeColor=#000082;exitX=0.000;exitY=0.382;exitDx=0;exitDy=0;entryX=0.500;entryY=1.000;entryDx=0;entryDy=0;" edge="1" parent="1" source="P31gPx8tbJ69Tu1oSB_v-2" target="P31gPx8tbJ69Tu1oSB_v-4">
          <mxGeometry width="50" height="50" relative="1" as="geometry">
            <Array as="points">
              <mxPoint x="1414" y="457" />
              <mxPoint x="1414" y="555" />
              <mxPoint x="401" y="555" />
            </Array>
          </mxGeometry>
        </mxCell>
        <mxCell id="P31gPx8tbJ69Tu1oSB_v-19" value="" style="html=1;rounded=1;edgeStyle=orthogonalEdgeStyle;dashed=0;startArrow=none;endArrow=block;endSize=12;strokeColor=#000082;exitX=0.500;exitY=0.000;exitDx=0;exitDy=0;entryX=0.500;entryY=1.000;entryDx=0;entryDy=0;" edge="1" parent="1" source="P31gPx8tbJ69Tu1oSB_v-3" target="P31gPx8tbJ69Tu1oSB_v-4">
          <mxGeometry width="50" height="50" relative="1" as="geometry">
            <Array as="points">
              <mxPoint x="373" y="555" />
              <mxPoint x="401" y="555" />
            </Array>
          </mxGeometry>
        </mxCell>
        <mxCell id="P31gPx8tbJ69Tu1oSB_v-20" value="" style="html=1;rounded=1;edgeStyle=orthogonalEdgeStyle;dashed=0;startArrow=none;endArrow=block;endSize=12;strokeColor=#000082;exitX=0.500;exitY=1.000;exitDx=0;exitDy=0;entryX=0.500;entryY=1.000;entryDx=0;entryDy=0;" edge="1" parent="1" source="P31gPx8tbJ69Tu1oSB_v-5" target="P31gPx8tbJ69Tu1oSB_v-4">
          <mxGeometry width="50" height="50" relative="1" as="geometry">
            <Array as="points">
              <mxPoint x="2166" y="750" />
              <mxPoint x="1414" y="750" />
              <mxPoint x="1414" y="555" />
              <mxPoint x="401" y="555" />
            </Array>
          </mxGeometry>
        </mxCell>
        <mxCell id="P31gPx8tbJ69Tu1oSB_v-21" value="" style="html=1;rounded=1;edgeStyle=orthogonalEdgeStyle;dashed=0;startArrow=none;endArrow=block;endSize=12;strokeColor=#000082;exitX=1.000;exitY=0.500;exitDx=0;exitDy=0;entryX=0.500;entryY=1.000;entryDx=0;entryDy=0;" edge="1" parent="1" source="P31gPx8tbJ69Tu1oSB_v-6" target="P31gPx8tbJ69Tu1oSB_v-4">
          <mxGeometry width="50" height="50" relative="1" as="geometry">
            <Array as="points">
              <mxPoint x="1414" y="198" />
              <mxPoint x="1414" y="555" />
              <mxPoint x="401" y="555" />
            </Array>
          </mxGeometry>
        </mxCell>
        <mxCell id="P31gPx8tbJ69Tu1oSB_v-22" value="" style="html=1;rounded=1;edgeStyle=orthogonalEdgeStyle;dashed=0;startArrow=none;endArrow=block;endSize=12;strokeColor=#000082;exitX=0.500;exitY=0.000;exitDx=0;exitDy=0;entryX=0.500;entryY=1.000;entryDx=0;entryDy=0;" edge="1" parent="1" source="P31gPx8tbJ69Tu1oSB_v-7" target="P31gPx8tbJ69Tu1oSB_v-4">
          <mxGeometry width="50" height="50" relative="1" as="geometry">
            <Array as="points">
              <mxPoint x="2089" y="750" />
              <mxPoint x="1414" y="750" />
              <mxPoint x="1414" y="555" />
              <mxPoint x="401" y="555" />
            </Array>
          </mxGeometry>
        </mxCell>
        <mxCell id="P31gPx8tbJ69Tu1oSB_v-23" value="" style="html=1;rounded=1;edgeStyle=orthogonalEdgeStyle;dashed=0;startArrow=none;endArrow=block;endSize=12;strokeColor=#000082;exitX=1.000;exitY=0.298;exitDx=0;exitDy=0;entryX=0.500;entryY=1.000;entryDx=0;entryDy=0;" edge="1" parent="1" source="P31gPx8tbJ69Tu1oSB_v-8" target="P31gPx8tbJ69Tu1oSB_v-4">
          <mxGeometry width="50" height="50" relative="1" as="geometry">
            <Array as="points">
              <mxPoint x="206" y="527" />
              <mxPoint x="206" y="555" />
              <mxPoint x="401" y="555" />
            </Array>
          </mxGeometry>
        </mxCell>
        <mxCell id="P31gPx8tbJ69Tu1oSB_v-24" value="" style="html=1;rounded=1;edgeStyle=orthogonalEdgeStyle;dashed=0;startArrow=none;endArrow=block;endSize=12;strokeColor=#000082;exitX=0.500;exitY=0.000;exitDx=0;exitDy=0;entryX=0.500;entryY=1.000;entryDx=0;entryDy=0;" edge="1" parent="1" source="P31gPx8tbJ69Tu1oSB_v-9" target="P31gPx8tbJ69Tu1oSB_v-4">
          <mxGeometry width="50" height="50" relative="1" as="geometry">
            <Array as="points">
              <mxPoint x="1752" y="555" />
              <mxPoint x="401" y="555" />
            </Array>
          </mxGeometry>
        </mxCell>
        <mxCell id="P31gPx8tbJ69Tu1oSB_v-25" value="" style="html=1;rounded=1;edgeStyle=orthogonalEdgeStyle;dashed=0;startArrow=none;endArrow=block;endSize=12;strokeColor=#000082;exitX=0.500;exitY=0.000;exitDx=0;exitDy=0;entryX=0.500;entryY=1.000;entryDx=0;entryDy=0;" edge="1" parent="1" source="P31gPx8tbJ69Tu1oSB_v-10" target="P31gPx8tbJ69Tu1oSB_v-4">
          <mxGeometry width="50" height="50" relative="1" as="geometry">
            <Array as="points">
              <mxPoint x="838" y="555" />
              <mxPoint x="401" y="555" />
            </Array>
          </mxGeometry>
        </mxCell>
        <mxCell id="P31gPx8tbJ69Tu1oSB_v-26" value="" style="html=1;rounded=1;edgeStyle=orthogonalEdgeStyle;dashed=0;startArrow=none;endArrow=block;endSize=12;strokeColor=#000082;exitX=1.000;exitY=0.500;exitDx=0;exitDy=0;entryX=0.500;entryY=1.000;entryDx=0;entryDy=0;" edge="1" parent="1" source="P31gPx8tbJ69Tu1oSB_v-11" target="P31gPx8tbJ69Tu1oSB_v-4">
          <mxGeometry width="50" height="50" relative="1" as="geometry">
            <Array as="points">
              <mxPoint x="1414" y="1320" />
              <mxPoint x="1414" y="555" />
              <mxPoint x="401" y="555" />
            </Array>
          </mxGeometry>
        </mxCell>
        <mxCell id="P31gPx8tbJ69Tu1oSB_v-27" value="" style="html=1;rounded=1;edgeStyle=orthogonalEdgeStyle;dashed=0;startArrow=none;endArrow=block;endSize=12;strokeColor=#000082;exitX=0.000;exitY=0.802;exitDx=0;exitDy=0;entryX=0.500;entryY=1.000;entryDx=0;entryDy=0;" edge="1" parent="1" source="P31gPx8tbJ69Tu1oSB_v-12" target="P31gPx8tbJ69Tu1oSB_v-4">
          <mxGeometry width="50" height="50" relative="1" as="geometry">
            <Array as="points">
              <mxPoint x="1414" y="967" />
              <mxPoint x="1414" y="555" />
              <mxPoint x="401" y="555" />
            </Array>
          </mxGeometry>
        </mxCell>
        <mxCell id="P31gPx8tbJ69Tu1oSB_v-28" value="" style="html=1;rounded=1;edgeStyle=orthogonalEdgeStyle;dashed=0;startArrow=none;endArrow=block;endSize=12;strokeColor=#000082;exitX=0.000;exitY=0.500;exitDx=0;exitDy=0;entryX=0.500;entryY=1.000;entryDx=0;entryDy=0;" edge="1" parent="1" source="P31gPx8tbJ69Tu1oSB_v-13" target="P31gPx8tbJ69Tu1oSB_v-4">
          <mxGeometry width="50" height="50" relative="1" as="geometry">
            <Array as="points">
              <mxPoint x="2242" y="846" />
              <mxPoint x="2242" y="750" />
              <mxPoint x="1414" y="750" />
              <mxPoint x="1414" y="555" />
              <mxPoint x="401" y="555" />
            </Array>
          </mxGeometry>
        </mxCell>
        <mxCell id="P31gPx8tbJ69Tu1oSB_v-29" value="" style="html=1;rounded=1;edgeStyle=orthogonalEdgeStyle;dashed=0;startArrow=none;endArrow=block;endSize=12;strokeColor=#000082;exitX=0.500;exitY=0.000;exitDx=0;exitDy=0;entryX=0.500;entryY=1.000;entryDx=0;entryDy=0;" edge="1" parent="1" source="P31gPx8tbJ69Tu1oSB_v-14" target="P31gPx8tbJ69Tu1oSB_v-4">
          <mxGeometry width="50" height="50" relative="1" as="geometry">
            <Array as="points">
              <mxPoint x="1742" y="750" />
              <mxPoint x="1414" y="750" />
              <mxPoint x="1414" y="555" />
              <mxPoint x="401" y="555" />
            </Array>
          </mxGeometry>
        </mxCell>
        <mxCell id="P31gPx8tbJ69Tu1oSB_v-30" value="" style="html=1;rounded=1;edgeStyle=orthogonalEdgeStyle;dashed=0;startArrow=none;endArrow=block;endSize=12;strokeColor=#000082;exitX=0.000;exitY=0.500;exitDx=0;exitDy=0;entryX=0.500;entryY=1.000;entryDx=0;entryDy=0;" edge="1" parent="1" source="P31gPx8tbJ69Tu1oSB_v-15" target="P31gPx8tbJ69Tu1oSB_v-4">
          <mxGeometry width="50" height="50" relative="1" as="geometry">
            <Array as="points">
              <mxPoint x="622" y="1028" />
              <mxPoint x="622" y="555" />
              <mxPoint x="401" y="555" />
            </Array>
          </mxGeometry>
        </mxCell>
        <mxCell id="P31gPx8tbJ69Tu1oSB_v-31" value="" style="html=1;rounded=1;edgeStyle=orthogonalEdgeStyle;dashed=0;startArrow=none;endArrow=block;endSize=12;strokeColor=#000082;exitX=0.000;exitY=0.500;exitDx=0;exitDy=0;entryX=0.500;entryY=1.000;entryDx=0;entryDy=0;" edge="1" parent="1" source="P31gPx8tbJ69Tu1oSB_v-16" target="P31gPx8tbJ69Tu1oSB_v-4">
          <mxGeometry width="50" height="50" relative="1" as="geometry">
            <Array as="points">
              <mxPoint x="1414" y="1229" />
              <mxPoint x="1414" y="555" />
              <mxPoint x="401" y="555" />
            </Array>
          </mxGeometry>
        </mxCell>
      </root>
    </mxGraphModel>
  </diagram>
</mxfile>
